<?xml version="1.0" encoding="UTF-8" standalone="no"?>
<!-- Created with Inkscape (http://www.inkscape.org/) -->

<svg
   width="25.4mm"
   height="128.5mm"
   viewBox="0 0 25.400001 128.5"
   version="1.1"
   id="svg1"
   inkscape:version="1.3.1 (91b66b0, 2023-11-16)"
   sodipodi:docname="dbq-basic.svg"
   xmlns:inkscape="http://www.inkscape.org/namespaces/inkscape"
   xmlns:sodipodi="http://sodipodi.sourceforge.net/DTD/sodipodi-0.dtd"
   xmlns="http://www.w3.org/2000/svg"
   xmlns:svg="http://www.w3.org/2000/svg">
  <sodipodi:namedview
     id="namedview1"
     pagecolor="#ffffff"
     bordercolor="#666666"
     borderopacity="1.0"
     inkscape:showpageshadow="2"
     inkscape:pageopacity="0.0"
     inkscape:pagecheckerboard="0"
     inkscape:deskcolor="#d1d1d1"
     inkscape:document-units="mm"
     inkscape:zoom="1.7503106"
     inkscape:cx="47.991482"
     inkscape:cy="227.95954"
     inkscape:window-width="1344"
     inkscape:window-height="1147"
     inkscape:window-x="54"
     inkscape:window-y="25"
     inkscape:window-maximized="0"
     inkscape:current-layer="layer3" />
  <defs
     id="defs1" />
  <g
     inkscape:groupmode="layer"
     id="layer3"
     inkscape:label="background">
    <rect
       style="fill:#b3b3b3;stroke:none;stroke-width:0.214427;stroke-linecap:round"
       id="rect8"
       width="25.185574"
       height="128.28557"
       x="0.10721298"
       y="0.10721298" />
  </g>
  <g
     inkscape:label="Layer 1"
     inkscape:groupmode="layer"
     id="layer1">
    <path
       d="m 11.51255,103.20963 h -0.547771 v -0.50385 h 0.547771 z m -0.03101,3.3693 h -0.485759 v -2.88613 h 0.485759 z m 3.374473,0 h -0.485759 v -1.64331 q 0,-0.19895 -0.02325,-0.37207 -0.02325,-0.1757 -0.08527,-0.27388 -0.0646,-0.10852 -0.186035,-0.1602 -0.12144,-0.0543 -0.315227,-0.0543 -0.198954,0 -0.415995,0.0982 -0.217042,0.0982 -0.415996,0.25064 v 2.1549 h -0.485759 v -2.88613 h 0.485759 v 0.3204 q 0.227377,-0.18862 0.470256,-0.29456 0.242879,-0.10594 0.498678,-0.10594 0.467672,0 0.713135,0.28164 0.245463,0.28164 0.245463,0.81132 z"
       id="text1"
       style="font-size:5.29167px;line-height:1.25;-inkscape-font-specification:'sans-serif, Normal';stroke-width:0.264583"
       aria-label="in" />
    <path
       d="m 12.507322,31.159693 h -0.483175 v -0.307475 q -0.06459,0.04393 -0.1757,0.124023 -0.10852,0.07751 -0.211873,0.124024 -0.12144,0.05943 -0.279053,0.09819 -0.157613,0.04134 -0.369487,0.04134 -0.390157,0 -0.661459,-0.258382 -0.271301,-0.258382 -0.271301,-0.658875 0,-0.328146 0.139526,-0.529684 0.142111,-0.204122 0.403077,-0.320394 0.26355,-0.116272 0.633036,-0.157613 0.369487,-0.04134 0.793234,-0.06201 v -0.07493 q 0,-0.165364 -0.05943,-0.273885 -0.05684,-0.10852 -0.165365,-0.170532 -0.103352,-0.05943 -0.248047,-0.0801 -0.144694,-0.02067 -0.302307,-0.02067 -0.191203,0 -0.426331,0.05168 -0.235128,0.04909 -0.485758,0.144694 h -0.02584 v -0.49351 q 0.142111,-0.03876 0.410828,-0.08527 0.268718,-0.04651 0.529684,-0.04651 0.304891,0 0.529684,0.05168 0.227376,0.04909 0.392741,0.170532 0.162781,0.118856 0.248047,0.307475 0.08527,0.188619 0.08527,0.467672 z m -0.483175,-0.710552 v -0.803569 q -0.222209,0.01292 -0.524516,0.03876 -0.299723,0.02584 -0.475423,0.07493 -0.20929,0.05943 -0.338481,0.186035 -0.129191,0.124023 -0.129191,0.343648 0,0.248047 0.149861,0.374655 0.149862,0.124023 0.457337,0.124023 0.255798,0 0.467672,-0.09819 0.211873,-0.100769 0.392741,-0.240296 z m 3.741376,0.710552 h -2.082561 v -0.392741 h 0.800985 v -2.578656 h -0.800985 v -0.3514 q 0.16278,0 0.348816,-0.02584 0.186035,-0.02842 0.281636,-0.0801 0.118856,-0.0646 0.186036,-0.16278 0.06976,-0.10077 0.0801,-0.268718 h 0.400493 v 3.467491 h 0.785482 z"
       id="text2"
       style="font-size:5.29167px;line-height:1.25;-inkscape-font-specification:'sans-serif, Normal';stroke-width:0.264583"
       aria-label="a1" />
    <path
       d="m 12.397509,47.873132 h -0.483175 v -0.307475 q -0.0646,0.04392 -0.1757,0.124024 -0.10852,0.07751 -0.211873,0.124023 -0.12144,0.05943 -0.279053,0.09819 -0.157613,0.04134 -0.369487,0.04134 -0.390157,0 -0.661458,-0.258382 -0.2713019,-0.258383 -0.2713019,-0.658875 0,-0.328146 0.1395269,-0.529684 0.14211,-0.204122 0.403076,-0.320394 0.26355,-0.116272 0.633037,-0.157613 0.369486,-0.04134 0.793233,-0.06201 v -0.07493 q 0,-0.165365 -0.05943,-0.273885 -0.05684,-0.108521 -0.165364,-0.170533 -0.103353,-0.05943 -0.248047,-0.0801 -0.144694,-0.02067 -0.302308,-0.02067 -0.191202,0 -0.42633,0.05168 -0.235128,0.04909 -0.485759,0.144694 h -0.02584 v -0.49351 q 0.14211,-0.03876 0.410827,-0.08527 0.268718,-0.04651 0.529684,-0.04651 0.304891,0 0.529684,0.05168 0.227376,0.04909 0.392741,0.170532 0.162781,0.118856 0.248047,0.307475 0.08527,0.188619 0.08527,0.467672 z m -0.483175,-0.710551 v -0.803569 q -0.222208,0.01292 -0.524516,0.03876 -0.299723,0.02584 -0.475423,0.07493 -0.20929,0.05943 -0.338481,0.186035 -0.129191,0.124024 -0.129191,0.343649 0,0.248047 0.149862,0.374654 0.149861,0.124024 0.457336,0.124024 0.255799,0 0.467672,-0.09819 0.211874,-0.10077 0.392741,-0.240296 z m 3.961001,0.710551 h -2.604493 v -0.540019 q 0.271301,-0.232544 0.542602,-0.465088 0.273886,-0.232544 0.509014,-0.462504 0.496094,-0.480591 0.679545,-0.762228 0.183451,-0.284221 0.183451,-0.612366 0,-0.299724 -0.198954,-0.467672 -0.19637,-0.170532 -0.550354,-0.170532 -0.235128,0 -0.509013,0.08268 -0.273886,0.08268 -0.534852,0.253215 h -0.02584 v -0.542603 q 0.183451,-0.09043 0.488343,-0.165365 0.307475,-0.07493 0.594279,-0.07493 0.591695,0 0.927592,0.286804 0.335897,0.284221 0.335897,0.772564 0,0.219625 -0.05684,0.410828 -0.05426,0.188619 -0.162781,0.359151 -0.100769,0.160197 -0.237711,0.315226 -0.134359,0.15503 -0.328146,0.343649 -0.276469,0.271301 -0.571025,0.5271 -0.294556,0.253214 -0.550354,0.470256 h 2.069642 z"
       id="text3"
       style="font-size:5.29167px;line-height:1.25;-inkscape-font-specification:'sans-serif, Normal';stroke-width:0.264583"
       aria-label="a2" />
    <path
       d="m 12.640389,67.114312 q 0,0.361735 -0.103353,0.651123 -0.100769,0.289388 -0.273885,0.485759 -0.183452,0.204122 -0.403077,0.307475 -0.219625,0.100769 -0.483175,0.100769 -0.245463,0 -0.428914,-0.05943 -0.183452,-0.05684 -0.361736,-0.15503 l -0.03101,0.134359 h -0.454752 v -4.020429 h 0.485758 v 1.436606 q 0.204122,-0.167948 0.434083,-0.273885 0.22996,-0.108521 0.516764,-0.108521 0.511597,0 0.806153,0.392741 0.29714,0.392742 0.29714,1.108461 z m -0.501262,0.01292 q 0,-0.516765 -0.170532,-0.782899 -0.170533,-0.268717 -0.550355,-0.268717 -0.211873,0 -0.428914,0.09302 -0.217041,0.09043 -0.403077,0.235128 v 1.653647 q 0.206706,0.09302 0.353984,0.129191 0.149862,0.03617 0.338481,0.03617 0.403076,0 0.630453,-0.26355 0.22996,-0.266134 0.22996,-0.83199 z m 3.581179,1.452108 h -2.082561 v -0.392741 h 0.800985 v -2.578655 h -0.800985 v -0.3514 q 0.16278,0 0.348816,-0.02584 0.186035,-0.02842 0.281636,-0.0801 0.118856,-0.0646 0.186036,-0.162781 0.06976,-0.100769 0.0801,-0.268718 h 0.400493 v 3.467491 h 0.785482 z"
       id="text5"
       style="font-size:5.29167px;line-height:1.25;-inkscape-font-specification:'sans-serif, Normal';stroke-width:0.264583"
       aria-label="b1" />
    <path
       d="m 12.530576,83.794159 q 0,0.361735 -0.103353,0.651123 -0.100769,0.289389 -0.273885,0.485759 -0.183452,0.204122 -0.403077,0.307475 -0.219625,0.100769 -0.483175,0.100769 -0.245463,0 -0.428914,-0.05943 -0.183452,-0.05684 -0.361735,-0.155029 l -0.03101,0.134359 H 9.9906778 v -4.020429 h 0.4857592 v 1.436606 q 0.204122,-0.167949 0.434082,-0.273886 0.22996,-0.10852 0.516764,-0.10852 0.511597,0 0.806153,0.392741 0.29714,0.392741 0.29714,1.10846 z m -0.501262,0.01292 q 0,-0.516765 -0.170532,-0.782898 -0.170532,-0.268718 -0.550354,-0.268718 -0.211874,0 -0.428915,0.09302 -0.217041,0.09043 -0.403076,0.235128 v 1.653646 q 0.206705,0.09302 0.353983,0.129192 0.149862,0.03617 0.338481,0.03617 0.403077,0 0.630453,-0.26355 0.22996,-0.266134 0.22996,-0.831991 z m 3.800804,1.452109 h -2.604494 v -0.540019 q 0.271302,-0.232544 0.542603,-0.465089 0.273886,-0.232544 0.509014,-0.462504 0.496094,-0.480591 0.679545,-0.762228 0.183451,-0.28422 0.183451,-0.612366 0,-0.299723 -0.198954,-0.467672 -0.19637,-0.170532 -0.550354,-0.170532 -0.235128,0 -0.509013,0.08268 -0.273886,0.08268 -0.534852,0.253215 h -0.02584 V 81.57207 q 0.183451,-0.09043 0.488343,-0.165365 0.307474,-0.07493 0.594279,-0.07493 0.591695,0 0.927592,0.286805 0.335897,0.28422 0.335897,0.772563 0,0.219625 -0.05684,0.410828 -0.05426,0.188619 -0.162781,0.359151 -0.100769,0.160197 -0.237711,0.315227 -0.134359,0.155029 -0.328146,0.343648 -0.276469,0.271302 -0.571025,0.5271 -0.294556,0.253215 -0.550354,0.470256 h 2.069642 z"
       id="text6"
       style="font-size:5.29167px;line-height:1.25;-inkscape-font-specification:'sans-serif, Normal';stroke-width:0.264583"
       aria-label="b2" />
    <path
       d="m 11.442787,121.25702 q 0,0.70538 -0.361735,1.11363 -0.361735,0.40824 -0.968934,0.40824 -0.612366,0 -0.9741012,-0.40824 -0.3591515,-0.40825 -0.3591515,-1.11363 0,-0.70539 0.3591515,-1.11363 0.3617352,-0.41083 0.9741012,-0.41083 0.607199,0 0.968934,0.41083 0.361735,0.40824 0.361735,1.11363 z m -0.501262,0 q 0,-0.56069 -0.219625,-0.83199 -0.219625,-0.27389 -0.609782,-0.27389 -0.3953248,0 -0.6149498,0.27389 -0.2170412,0.2713 -0.2170412,0.83199 0,0.5426 0.219625,0.82424 0.219625,0.27905 0.612366,0.27905 0.387574,0 0.607199,-0.27647 0.222208,-0.27905 0.222208,-0.82682 z m 3.645775,1.44177 h -0.485759 v -0.32039 q -0.245463,0.19378 -0.470256,0.29714 -0.224792,0.10335 -0.496094,0.10335 -0.454753,0 -0.707967,-0.27647 -0.253215,-0.27905 -0.253215,-0.81649 v -1.87327 h 0.485759 v 1.64331 q 0,0.21963 0.02067,0.37724 0.02067,0.15503 0.08785,0.26613 0.06976,0.11369 0.180868,0.16537 0.111104,0.0517 0.322978,0.0517 0.188619,0 0.410828,-0.0982 0.224792,-0.0982 0.418579,-0.25063 v -2.15491 H 14.5873 Z m 2.454631,-0.0258 q -0.136942,0.0362 -0.299723,0.0594 -0.160197,0.0233 -0.286804,0.0233 -0.441834,0 -0.671794,-0.23772 -0.229961,-0.23771 -0.229961,-0.76222 v -1.53479 h -0.328145 v -0.40825 h 0.328145 v -0.82941 h 0.485759 v 0.82941 h 1.002523 v 0.40825 h -1.002523 v 1.31516 q 0,0.22738 0.01033,0.35657 0.01034,0.12661 0.07235,0.23771 0.05684,0.10335 0.15503,0.15245 0.100769,0.0465 0.304891,0.0465 0.118856,0 0.248047,-0.0336 0.129191,-0.0362 0.186035,-0.0594 h 0.02584 z"
       id="text7"
       style="font-size:5.29167px;line-height:1.25;-inkscape-font-specification:'sans-serif, Normal';stroke-width:0.264583"
       aria-label="out" />
    <path
       d="m 8.2750368,8.3991542 q 0,1.0490282 -0.4599187,1.9016868 Q 7.3603669,11.1535 6.6007258,11.623754 6.0736278,11.949315 5.4225069,12.094008 4.7765535,12.238702 3.71719,12.238702 H 1.7741624 V 4.5441046 h 1.9223571 q 1.1265427,0 1.7879989,0.1653641 0.6666238,0.1601964 1.1265426,0.4444159 0.7854793,0.4909245 1.2247276,1.3074095 0.4392482,0.8164851 0.4392482,1.9378601 z M 7.2053381,8.3836513 q 0,-0.9043347 -0.3152252,-1.5244499 Q 6.5748876,6.2390862 5.9496048,5.8825199 5.4948536,5.6241386 4.9832586,5.5259537 4.4716635,5.4226012 3.758531,5.4226012 H 2.7973525 V 11.360205 H 3.758531 q 0.7389707,0 1.2867391,-0.10852 Q 5.5982062,11.143165 6.058125,10.84861 6.6317315,10.481708 6.915951,9.8822633 7.2053381,9.2828184 7.2053381,8.3836513 Z m 8.5265839,1.488276 q 0,0.5736067 -0.21704,1.0128557 -0.21704,0.439248 -0.583942,0.723468 -0.43408,0.341064 -0.956011,0.485757 -0.516762,0.144694 -1.317744,0.144694 H 9.9286776 V 4.5441046 h 2.2789234 q 0.842323,0 1.260901,0.062012 0.418578,0.062012 0.800982,0.2583814 0.423746,0.2222079 0.614948,0.5736065 0.191202,0.346231 0.191202,0.8319879 0,0.5477685 -0.279052,0.9353405 Q 14.51753,7.5878368 14.052444,7.82038 v 0.041341 q 0.780311,0.1601964 1.229895,0.6872944 0.449583,0.5219303 0.449583,1.3229119 z M 14.011103,6.4044502 q 0,-0.2790518 -0.09302,-0.470254 Q 13.825073,5.742994 13.618363,5.6241386 13.375485,5.4846127 13.029254,5.4536069 12.683023,5.4174339 12.171428,5.4174339 h -1.21956 v 2.2220795 h 1.322912 q 0.480589,0 0.764809,-0.046509 0.284219,-0.051676 0.527098,-0.2067051 0.242878,-0.1550292 0.341063,-0.3979076 0.103353,-0.2480461 0.103353,-0.5839415 z m 0.656288,3.5088181 q 0,-0.4650859 -0.139526,-0.7389701 Q 14.38834,8.900414 14.021438,8.7092118 13.773392,8.5800211 13.416826,8.5438477 13.065427,8.5025067 12.559,8.5025067 h -1.607132 v 2.8628653 h 1.353918 q 0.671791,0 1.100704,-0.06718 0.428913,-0.07235 0.702798,-0.258381 0.289387,-0.201538 0.423745,-0.459919 0.134358,-0.258382 0.134358,-0.6666237 z m 9.379243,4.2116177 q -0.310057,0.07751 -0.614947,0.10852 -0.299723,0.03617 -0.614948,0.03617 -0.899167,0 -1.446935,-0.496092 -0.542601,-0.490924 -0.58911,-1.410762 -0.124023,0.02067 -0.242878,0.02584 -0.113688,0.01034 -0.222208,0.01034 -0.811318,0 -1.477942,-0.268717 -0.661456,-0.26872 -1.126542,-0.780315 -0.465087,-0.511596 -0.7183,-1.255734 -0.248046,-0.7441385 -0.248046,-1.7001494 0,-0.9405081 0.248046,-1.6846464 0.248046,-0.7493059 0.723467,-1.2815714 0.454752,-0.5064274 1.126543,-0.775144 0.676959,-0.2687166 1.472774,-0.2687166 0.82682,0 1.483109,0.2738842 0.661456,0.2687166 1.121375,0.7699764 0.470254,0.5167627 0.7183,1.2660685 0.253213,0.7493059 0.253213,1.7001493 0,1.4107617 -0.578774,2.3771084 -0.573606,0.966347 -1.54512,1.353919 0.02067,0.58911 0.279052,0.91467 0.258381,0.325561 0.940508,0.325561 0.211872,0 0.501259,-0.06718 0.294555,-0.06201 0.418578,-0.113688 h 0.139526 z m -1.21956,-5.7308994 q 0,-1.4986118 -0.671791,-2.3099292 -0.671792,-0.816485 -1.834508,-0.816485 -1.173051,0 -1.844842,0.816485 -0.666624,0.8113174 -0.666624,2.3099292 0,1.5141147 0.682126,2.3202644 0.682127,0.800983 1.82934,0.800983 1.147213,0 1.824173,-0.800983 0.682126,-0.8061497 0.682126,-2.3202644 z"
       id="text8"
       style="font-size:10.5833px;line-height:1.25;stroke-width:0.264583"
       aria-label="DBQ" />
  </g>
  <g
     inkscape:groupmode="layer"
     id="layer2"
     inkscape:label="components"
     style="display:inline">
    <circle
       style="fill:#0000ff;stroke:#0000ff;stroke-width:0.1;stroke-linecap:round"
       id="path1"
       cx="12.676376"
       cy="113.71658"
       r="2.4687886"
       inkscape:label="audioOut" />
    <circle
       style="fill:#00ff00;stroke:#00ff00;stroke-width:0.1;stroke-linecap:round"
       id="path1-5"
       cx="12.55525"
       cy="96.974319"
       r="2.4687886"
       inkscape:label="audioIn" />
    <circle
       style="fill:#ff0000;stroke:#ff0000;stroke-width:0.1;stroke-linecap:round"
       id="path1-3-3"
       cx="12.458368"
       cy="75.872299"
       r="2.4687886"
       inkscape:label="b2" />
    <circle
       style="fill:#ff0000;stroke:#ff0000;stroke-width:0.1;stroke-linecap:round"
       id="path1-3-4"
       cx="12.458368"
       cy="59.166908"
       r="2.4687886"
       inkscape:label="b1" />
    <circle
       style="fill:#ff0000;stroke:#ff0000;stroke-width:0.1;stroke-linecap:round"
       id="path1-3-5"
       cx="12.458368"
       cy="38.985306"
       r="2.4687886"
       inkscape:label="a2" />
    <circle
       style="fill:#ff0000;stroke:#ff0000;stroke-width:0.1;stroke-linecap:round"
       id="path1-3"
       cx="12.458368"
       cy="22.279915"
       r="2.4687886"
       inkscape:label="a1" />
  </g>
</svg>
